<?xml version="1.0" ?><svg id="Layer_1" style="enable-background:new 0 0 512 512;" version="1.1" viewBox="0 0 512 512" xml:space="preserve" xmlns="http://www.w3.org/2000/svg" xmlns:xlink="http://www.w3.org/1999/xlink"><g><g><path d="M256,419.9c-74.9,0-135.8-60.9-135.8-135.8v-89.3c0-5,4.1-9.1,9.1-9.1c5,0,9.1,4.1,9.1,9.1V284    c0,64.8,52.8,117.6,117.6,117.6S373.6,348.9,373.6,284v-89.3c0-5,4.1-9.1,9.1-9.1s9.1,4.1,9.1,9.1V284    C391.8,358.9,330.9,419.9,256,419.9z" id="XMLID_48_"/></g><path d="M156.6,207.5V284c0,54.9,44.5,99.4,99.4,99.4h0c54.9,0,99.4-44.5,99.4-99.4v-76.6H156.6z" id="XMLID_47_"/><path d="M359,207.5H153c-7,0-12.8,5.7-12.8,12.8l0,0c0,7,5.7,12.8,12.8,12.8h206c7,0,12.8-5.7,12.8-12.8l0,0   C371.8,213.2,366.1,207.5,359,207.5z" id="XMLID_46_"/><rect height="73.9" id="XMLID_45_" width="45" x="233.5" y="408.7"/><path d="M329.8,506H182.2v-14c0-9.4,7.6-17,17-17h113.7c9.4,0,17,7.6,17,17V506z" id="XMLID_44_"/><path d="M343.9,59c-0.5,0.1-1,0.2-1.5,0.2c-3.7,0-6.6-3-6.6-6.7c0-1.6,0.6-3.1,1.5-4.2c-4.8-6.8-10.4-13-16.7-18.4   c-0.9,0.4-1.8,0.7-2.8,0.7c-3.7,0-6.7-3-6.7-6.7c0-0.4,0-0.8,0.1-1.1c-7.6-5.1-16-9.2-24.8-12c-1.2,1.2-2.8,1.9-4.7,1.9   c-3,0-5.6-2-6.4-4.8C269,6.6,262.6,6,256,6c-5.9,0-11.6,0.5-17.2,1.5c-0.7,3-3.3,5.2-6.5,5.2c-2.1,0-3.9-0.9-5.1-2.4   c-9.4,2.9-18.3,7.1-26.3,12.5c0.1,0.4,0.1,0.7,0.1,1.1c0,3.7-3,6.7-6.6,6.7c-1,0-2-0.2-2.9-0.7c-2,1.7-3.9,3.4-5.7,5.3   c-4,4-7.7,8.4-11,13.1c1,1.1,1.5,2.6,1.5,4.2c0,3.7-3,6.7-6.6,6.7c-0.5,0-1-0.1-1.5-0.2c-7.3,13.9-11.5,29.6-11.5,46.4v76.6h198.7   v-76.6C355.4,88.6,351.2,72.8,343.9,59z M169.6,173.7c-3.7,0-6.6-3-6.6-6.6c0-3.7,3-6.6,6.6-6.6c3.7,0,6.6,3,6.6,6.6   C176.3,170.7,173.3,173.7,169.6,173.7z M169.6,145.1c-3.7,0-6.6-3-6.6-6.6s3-6.6,6.6-6.6c3.7,0,6.6,3,6.6,6.6   S173.3,145.1,169.6,145.1z M169.6,116.4c-3.7,0-6.6-3-6.6-6.6s3-6.6,6.6-6.6c3.7,0,6.6,3,6.6,6.6S173.3,116.4,169.6,116.4z    M169.6,87.8c-3.7,0-6.6-3-6.6-6.6c0-3.7,3-6.6,6.6-6.6c3.7,0,6.6,3,6.6,6.6C176.3,84.8,173.3,87.8,169.6,87.8z M194.3,173.7   c-3.7,0-6.6-3-6.6-6.6c0-3.7,3-6.6,6.6-6.6c3.7,0,6.6,3,6.6,6.6C200.9,170.7,198,173.7,194.3,173.7z M194.3,145.1   c-3.7,0-6.6-3-6.6-6.6s3-6.6,6.6-6.6c3.7,0,6.6,3,6.6,6.6S198,145.1,194.3,145.1z M194.3,116.4c-3.7,0-6.6-3-6.6-6.6s3-6.6,6.6-6.6   c3.7,0,6.6,3,6.6,6.6S198,116.4,194.3,116.4z M194.3,87.8c-3.7,0-6.6-3-6.6-6.6c0-3.7,3-6.6,6.6-6.6c3.7,0,6.6,3,6.6,6.6   C200.9,84.8,198,87.8,194.3,87.8z M194.3,59.1c-3.7,0-6.6-3-6.6-6.6c0-3.7,3-6.6,6.6-6.6c3.7,0,6.6,3,6.6,6.6   C200.9,56.2,198,59.1,194.3,59.1z M219,173.7c-3.7,0-6.6-3-6.6-6.6c0-3.7,3-6.6,6.6-6.6c3.7,0,6.6,3,6.6,6.6   C225.6,170.7,222.6,173.7,219,173.7z M219,145.1c-3.7,0-6.6-3-6.6-6.6s3-6.6,6.6-6.6c3.7,0,6.6,3,6.6,6.6S222.6,145.1,219,145.1z    M219,116.4c-3.7,0-6.6-3-6.6-6.6s3-6.6,6.6-6.6c3.7,0,6.6,3,6.6,6.6S222.6,116.4,219,116.4z M219,87.8c-3.7,0-6.6-3-6.6-6.6   c0-3.7,3-6.6,6.6-6.6c3.7,0,6.6,3,6.6,6.6C225.6,84.8,222.6,87.8,219,87.8z M219,59.1c-3.7,0-6.6-3-6.6-6.6c0-3.7,3-6.6,6.6-6.6   c3.7,0,6.6,3,6.6,6.6C225.6,56.2,222.6,59.1,219,59.1z M219,30.5c-3.7,0-6.6-3-6.6-6.6c0-3.7,3-6.6,6.6-6.6c3.7,0,6.6,3,6.6,6.6   C225.6,27.5,222.6,30.5,219,30.5z M243.7,173.7c-3.7,0-6.6-3-6.6-6.6c0-3.7,3-6.6,6.6-6.6c3.7,0,6.6,3,6.6,6.6   C250.3,170.7,247.3,173.7,243.7,173.7z M243.7,145.1c-3.7,0-6.6-3-6.6-6.6s3-6.6,6.6-6.6c3.7,0,6.6,3,6.6,6.6   S247.3,145.1,243.7,145.1z M243.7,116.4c-3.7,0-6.6-3-6.6-6.6s3-6.6,6.6-6.6c3.7,0,6.6,3,6.6,6.6S247.3,116.4,243.7,116.4z    M243.7,87.8c-3.7,0-6.6-3-6.6-6.6c0-3.7,3-6.6,6.6-6.6c3.7,0,6.6,3,6.6,6.6C250.3,84.8,247.3,87.8,243.7,87.8z M243.7,59.1   c-3.7,0-6.6-3-6.6-6.6c0-3.7,3-6.6,6.6-6.6c3.7,0,6.6,3,6.6,6.6C250.3,56.2,247.3,59.1,243.7,59.1z M243.7,30.5   c-3.7,0-6.6-3-6.6-6.6c0-3.7,3-6.6,6.6-6.6c3.7,0,6.6,3,6.6,6.6C250.3,27.5,247.3,30.5,243.7,30.5z M268.3,173.7   c-3.7,0-6.6-3-6.6-6.6c0-3.7,3-6.6,6.6-6.6c3.7,0,6.6,3,6.6,6.6C275,170.7,272,173.7,268.3,173.7z M268.3,145.1   c-3.7,0-6.6-3-6.6-6.6s3-6.6,6.6-6.6c3.7,0,6.6,3,6.6,6.6S272,145.1,268.3,145.1z M268.3,116.4c-3.7,0-6.6-3-6.6-6.6s3-6.6,6.6-6.6   c3.7,0,6.6,3,6.6,6.6S272,116.4,268.3,116.4z M268.3,87.8c-3.7,0-6.6-3-6.6-6.6c0-3.7,3-6.6,6.6-6.6c3.7,0,6.6,3,6.6,6.6   C275,84.8,272,87.8,268.3,87.8z M268.3,59.1c-3.7,0-6.6-3-6.6-6.6c0-3.7,3-6.6,6.6-6.6c3.7,0,6.6,3,6.6,6.6   C275,56.2,272,59.1,268.3,59.1z M268.3,30.5c-3.7,0-6.6-3-6.6-6.6c0-3.7,3-6.6,6.6-6.6c3.7,0,6.6,3,6.6,6.6   C275,27.5,272,30.5,268.3,30.5z M293,173.7c-3.7,0-6.6-3-6.6-6.6c0-3.7,3-6.6,6.6-6.6c3.7,0,6.6,3,6.6,6.6   C299.7,170.7,296.7,173.7,293,173.7z M293,145.1c-3.7,0-6.6-3-6.6-6.6s3-6.6,6.6-6.6c3.7,0,6.6,3,6.6,6.6S296.7,145.1,293,145.1z    M293,116.4c-3.7,0-6.6-3-6.6-6.6s3-6.6,6.6-6.6c3.7,0,6.6,3,6.6,6.6S296.7,116.4,293,116.4z M293,87.8c-3.7,0-6.6-3-6.6-6.6   c0-3.7,3-6.6,6.6-6.6c3.7,0,6.6,3,6.6,6.6C299.7,84.8,296.7,87.8,293,87.8z M293,59.1c-3.7,0-6.6-3-6.6-6.6c0-3.7,3-6.6,6.6-6.6   c3.7,0,6.6,3,6.6,6.6C299.7,56.2,296.7,59.1,293,59.1z M293,30.5c-3.7,0-6.6-3-6.6-6.6c0-3.7,3-6.6,6.6-6.6c3.7,0,6.6,3,6.6,6.6   C299.7,27.5,296.7,30.5,293,30.5z M317.7,173.7c-3.7,0-6.6-3-6.6-6.6c0-3.7,3-6.6,6.6-6.6c3.7,0,6.6,3,6.6,6.6   C324.4,170.7,321.4,173.7,317.7,173.7z M317.7,145.1c-3.7,0-6.6-3-6.6-6.6s3-6.6,6.6-6.6c3.7,0,6.6,3,6.6,6.6   S321.4,145.1,317.7,145.1z M317.7,116.4c-3.7,0-6.6-3-6.6-6.6s3-6.6,6.6-6.6c3.7,0,6.6,3,6.6,6.6S321.4,116.4,317.7,116.4z    M317.7,87.8c-3.7,0-6.6-3-6.6-6.6c0-3.7,3-6.6,6.6-6.6c3.7,0,6.6,3,6.6,6.6C324.4,84.8,321.4,87.8,317.7,87.8z M317.7,59.1   c-3.7,0-6.6-3-6.6-6.6c0-3.7,3-6.6,6.6-6.6c3.7,0,6.6,3,6.6,6.6C324.4,56.2,321.4,59.1,317.7,59.1z M342.4,173.7   c-3.7,0-6.6-3-6.6-6.6c0-3.7,3-6.6,6.6-6.6c3.7,0,6.6,3,6.6,6.6C349,170.7,346.1,173.7,342.4,173.7z M342.4,145.1   c-3.7,0-6.6-3-6.6-6.6s3-6.6,6.6-6.6c3.7,0,6.6,3,6.6,6.6S346.1,145.1,342.4,145.1z M342.4,116.4c-3.7,0-6.6-3-6.6-6.6   s3-6.6,6.6-6.6c3.7,0,6.6,3,6.6,6.6S346.1,116.4,342.4,116.4z M342.4,87.8c-3.7,0-6.6-3-6.6-6.6c0-3.7,3-6.6,6.6-6.6   c3.7,0,6.6,3,6.6,6.6C349,84.8,346.1,87.8,342.4,87.8z"/></g></svg>
